<mxfile host="Electron" modified="2024-07-20T18:54:18.710Z" agent="Mozilla/5.0 (X11; Linux x86_64) AppleWebKit/537.36 (KHTML, like Gecko) draw.io/24.5.3 Chrome/124.0.6367.207 Electron/30.0.6 Safari/537.36" etag="caVTJ4Seu0V1pwstLhHz" version="24.5.3" type="device">
  <diagram name="Page-1" id="zOOH1T35l8B3GPWfAyzy">
    <mxGraphModel dx="1434" dy="870" grid="1" gridSize="10" guides="1" tooltips="1" connect="1" arrows="1" fold="1" page="1" pageScale="1" pageWidth="850" pageHeight="1100" math="0" shadow="0">
      <root>
        <mxCell id="0" />
        <mxCell id="1" parent="0" />
        <mxCell id="PshpH_yN4MgfVXaF_9g4-1" value="Continuation Bit" style="rounded=0;whiteSpace=wrap;html=1;" parent="1" vertex="1">
          <mxGeometry x="120" y="160" width="120" height="60" as="geometry" />
        </mxCell>
        <mxCell id="PshpH_yN4MgfVXaF_9g4-2" value="message body (5 bits)" style="rounded=0;whiteSpace=wrap;html=1;" parent="1" vertex="1">
          <mxGeometry x="240" y="160" width="290" height="60" as="geometry" />
        </mxCell>
        <mxCell id="PshpH_yN4MgfVXaF_9g4-4" value="Header Bit" style="rounded=0;whiteSpace=wrap;html=1;" parent="1" vertex="1">
          <mxGeometry x="530" y="160" width="120" height="60" as="geometry" />
        </mxCell>
        <mxCell id="PshpH_yN4MgfVXaF_9g4-5" value="&lt;b&gt;&lt;font style=&quot;font-size: 18px;&quot;&gt;Virtual Interrupt Frame Structure&lt;/font&gt;&lt;/b&gt;" style="text;html=1;align=center;verticalAlign=middle;whiteSpace=wrap;rounded=0;" parent="1" vertex="1">
          <mxGeometry x="285" y="70" width="200" height="90" as="geometry" />
        </mxCell>
      </root>
    </mxGraphModel>
  </diagram>
</mxfile>
